<svg width="147" height="38" viewBox="0 0 147 38" fill="none"
    xmlns="http://www.w3.org/2000/svg">
    <path d="M18.477 0.0022705C18.6995 0.102172 18.9413 0.0749264 19.174 0.0987666C21.197 0.311058 23.1213 0.861653 24.9502 1.75055C26.527 2.51684 27.9529 3.50224 29.2312 4.70106C30.7229 6.09855 31.9319 7.70947 32.856 9.53267C33.6518 11.1027 34.1911 12.7579 34.4851 14.496C34.7019 15.7799 34.761 17.073 34.6951 18.3683C34.5793 20.6592 34.0344 22.8491 33.057 24.9278C32.1227 26.9145 30.8625 28.6764 29.3504 30.2612C27.148 32.5703 24.5789 34.3855 21.776 35.884C20.7838 36.4153 19.7666 36.8955 18.7256 37.3213C18.5144 37.4075 18.3021 37.4791 18.0683 37.4779C17.6426 37.4745 17.3542 37.2804 17.2112 36.8706C17.1328 36.6469 17.0511 36.4256 16.9342 36.2189C16.4097 35.2914 15.6298 34.6988 14.5785 34.5206C11.0377 33.9201 7.95323 32.4056 5.35805 29.9217C2.76969 27.4457 1.10768 24.4476 0.360692 20.9431C0.151806 19.9611 0.0348736 18.9677 0.00762771 17.963C-0.116114 13.4777 1.26548 9.51111 4.16945 6.09969C6.71127 3.11512 9.92515 1.21812 13.7589 0.379173C14.4707 0.223644 15.1916 0.123742 15.917 0.0601681C15.9965 0.0533566 16.0907 0.0862788 16.1509 0C16.9251 0.0022705 17.7016 0.0022705 18.477 0.0022705Z" fill="#2B2B2B"/>
    <path d="M23.2485 7.62841C23.253 8.137 23.0668 8.56953 22.7274 8.94076C22.6763 8.99638 22.6207 9.0486 22.5673 9.10196C19.0231 12.6462 15.4788 16.1904 11.9346 19.7358C11.8143 19.8562 11.6951 19.9776 11.5509 20.0719C10.9185 20.4851 10.2533 20.5339 9.5869 20.1899C8.91596 19.8448 8.57653 19.2568 8.56517 18.5086C8.55723 17.9898 8.75362 17.5334 9.12939 17.1599C10.1488 16.1462 11.1626 15.1279 12.1798 14.1107C14.7875 11.503 17.3951 8.89307 20.0051 6.28655C20.6726 5.62016 21.6796 5.53274 22.4413 6.08107C22.9658 6.45797 23.2371 6.97791 23.2485 7.62841Z" fill="white"/>
    <path d="M23.245 14.7113C23.253 15.3867 23.0668 15.8181 22.7285 16.1894C22.6524 16.2734 22.5695 16.3517 22.4889 16.4312C20.1753 18.7448 17.8617 21.0573 15.5492 23.3709C15.3743 23.5458 15.1904 23.7058 14.9691 23.8194C14.163 24.2349 13.1776 24.0282 12.6134 23.3244C12.0378 22.6069 12.0515 21.5931 12.6475 20.8961C12.7269 20.803 12.8144 20.7156 12.9006 20.6282C15.2131 18.3145 17.5268 16.002 19.8404 13.6884C20.0754 13.4534 20.3217 13.2377 20.6385 13.1117C21.8873 12.6167 23.2439 13.534 23.245 14.7113Z" fill="white"/>
    <path d="M17.5596 27.6565C16.9353 27.6293 16.3404 27.2796 16.0021 26.5667C15.6695 25.8639 15.7671 25.1885 16.2359 24.5686C16.3041 24.4789 16.3835 24.3961 16.463 24.3166C17.6119 23.1666 18.7619 22.0177 19.9096 20.8677C20.2173 20.5589 20.568 20.3376 21.004 20.2581C21.7737 20.1173 22.5661 20.4715 22.9691 21.1447C23.3812 21.8327 23.3346 22.6784 22.8476 23.296C22.7772 23.3846 22.6989 23.4674 22.6194 23.548C21.4638 24.7049 20.3058 25.8583 19.1535 27.0174C18.7562 27.4181 18.2953 27.6576 17.5596 27.6565Z" fill="white"/>
    <path d="M41.5322 18.0658C41.6287 17.9591 41.623 17.8251 41.6389 17.6946C41.8399 16.1007 42.4552 14.7111 43.6778 13.6338C44.5985 12.8221 45.6838 12.368 46.8974 12.2181C47.9793 12.0842 49.0532 12.1239 50.0954 12.4588C51.9708 13.0616 53.1935 14.3138 53.7384 16.2153C53.7509 16.2596 53.7747 16.3027 53.7577 16.3516C53.718 16.3833 53.6714 16.3833 53.6238 16.3833C52.9994 16.3833 52.375 16.3788 51.7517 16.3868C51.6132 16.389 51.5531 16.3311 51.4986 16.2153C50.8038 14.7134 49.2099 13.9516 47.473 14.1242C45.3796 14.332 44.0491 15.8816 43.7936 17.8365C43.662 18.8446 43.713 19.8402 44.0797 20.7972C44.6246 22.2231 45.6702 23.0666 47.1642 23.3413C48.0622 23.5059 48.9579 23.4718 49.8082 23.1017C51.1171 22.5307 51.8925 21.5169 52.1945 20.1308C52.2217 20.0048 52.2796 19.8788 52.241 19.7425C52.1411 19.6892 52.0355 19.713 51.9334 19.713C50.5813 19.7108 49.2292 19.7119 47.876 19.7119C47.8101 19.7119 47.7432 19.7085 47.6773 19.7119C47.582 19.7187 47.5388 19.6801 47.54 19.5825C47.5422 19.1568 47.5434 18.731 47.5388 18.3053C47.5377 18.1895 47.5922 18.1577 47.6944 18.1634C47.7511 18.1668 47.8079 18.1634 47.8646 18.1634C49.8036 18.1634 51.7415 18.1634 53.6805 18.1634C53.7373 18.1634 53.794 18.168 53.8508 18.1634C53.9825 18.1521 54.037 18.2043 54.0358 18.3417C54.0313 18.9558 54.0733 19.5745 54.0222 20.1853C53.9541 20.997 53.6555 21.7474 53.2287 22.4388C52.2456 24.0326 50.8163 24.9533 48.9681 25.2326C48.8557 25.2496 48.7433 25.2633 48.6309 25.278C48.2018 25.3302 47.7715 25.2871 47.3424 25.3019C45.1049 25.2247 43.4553 24.1768 42.3576 22.2492C41.9 21.4454 41.6151 20.5792 41.5879 19.6426C41.5856 19.5847 41.5697 19.5314 41.5334 19.4848C41.5322 19.0114 41.5322 18.5392 41.5322 18.0658Z" fill="#2B2B2B"/>
    <path d="M74.9086 25.3312C74.6531 25.2608 74.3875 25.2904 74.1275 25.2415C72.8708 25.0043 71.949 24.3299 71.3893 23.172C71.3734 23.1379 71.3541 23.1061 71.3359 23.0732C71.3325 23.0675 71.3212 23.0664 71.2758 23.046C71.2758 23.1277 71.2758 23.197 71.2758 23.2662C71.2758 23.8247 71.2769 24.3822 71.2758 24.9407C71.2746 25.1643 71.2724 25.1677 71.068 25.1689C70.5004 25.1711 69.9328 25.1655 69.3651 25.1723C69.2187 25.1734 69.1528 25.1291 69.1744 24.9793C69.1801 24.9418 69.1755 24.9032 69.1755 24.8658C69.1755 20.7698 69.1755 16.6738 69.1755 12.5778C69.1755 12.2191 69.1313 12.2395 69.5082 12.2395C70.019 12.2395 70.5299 12.2384 71.0408 12.2407C71.2712 12.2418 71.2746 12.2452 71.2758 12.4768C71.2769 13.9435 71.2769 15.4092 71.2769 16.8759C71.2769 16.9883 71.2769 17.0995 71.2769 17.2165C71.3813 17.2085 71.3791 17.1279 71.4052 17.0757C72.0239 15.8292 73.0399 15.1537 74.4113 14.9993C75.3343 14.896 76.2186 15.0232 77.0553 15.4466C78.0305 15.9404 78.7071 16.7181 79.0851 17.7228C79.7152 19.4007 79.7254 21.1013 78.9932 22.7497C78.2746 24.3663 76.9781 25.1973 75.2117 25.296C75.1481 25.2994 75.0777 25.2756 75.0232 25.3301C74.9846 25.3312 74.946 25.3312 74.9086 25.3312Z" fill="#2B2B2B"/>
    <path d="M117.756 25.2833C117.703 25.2787 117.65 25.2742 117.597 25.2685C117.544 25.2254 117.473 25.2583 117.417 25.2277C115.985 24.9109 115.107 24.0141 114.698 22.6291C114.542 22.0989 114.49 21.5529 114.489 21.0034C114.483 19.1405 114.487 17.2764 114.487 15.4134C114.487 15.3658 114.489 15.3192 114.487 15.2715C114.48 15.1569 114.521 15.0978 114.648 15.0978C115.244 15.1012 115.84 15.1001 116.436 15.099C116.544 15.099 116.592 15.1432 116.587 15.2511C116.584 15.3272 116.587 15.4021 116.587 15.4781C116.587 17.2185 116.587 18.9588 116.587 20.6991C116.587 21.0113 116.613 21.3224 116.679 21.6278C116.922 22.7653 117.729 23.476 118.892 23.5634C119.397 23.602 119.894 23.5532 120.362 23.3397C121.242 22.939 121.679 22.2147 121.843 21.2952C121.893 21.0147 121.91 20.7332 121.91 20.4483C121.909 18.7931 121.909 17.1379 121.909 15.4827C121.909 15.4168 121.914 15.3499 121.908 15.284C121.898 15.1557 121.942 15.0956 122.082 15.0967C122.669 15.1012 123.254 15.1012 123.841 15.0967C123.974 15.0956 124.034 15.1421 124.023 15.2772C124.018 15.334 124.023 15.3907 124.023 15.4475C124.023 18.5785 124.023 21.7084 124.023 24.8394C124.023 24.8871 124.017 24.9348 124.024 24.9813C124.046 25.1357 123.971 25.172 123.83 25.1709C123.253 25.1652 122.677 25.1652 122.099 25.1709C121.952 25.172 121.905 25.1277 121.906 24.9779C121.914 24.3921 121.909 23.8063 121.874 23.2046C121.749 23.4169 121.631 23.6326 121.498 23.8392C121.365 24.047 121.196 24.2264 121.013 24.3921C120.823 24.5635 120.613 24.7077 120.39 24.8337C120.176 24.9552 119.95 25.0506 119.715 25.1255C119.471 25.2027 119.224 25.2674 118.969 25.2844C118.837 25.3366 118.692 25.2594 118.562 25.331C118.43 25.331 118.298 25.331 118.165 25.331C118.033 25.2583 117.887 25.3378 117.756 25.2833Z" fill="#2B2B2B"/>
    <path d="M146.997 14.9433C146.59 14.9445 146.59 14.9445 146.59 14.5471C146.59 14.0703 146.59 13.5935 146.59 13.0736C146.479 13.1701 146.467 13.2666 146.435 13.3483C146.262 13.7877 146.093 14.2281 145.925 14.6686C145.868 14.8185 145.835 14.9524 145.611 14.9547C145.373 14.9581 145.36 14.798 145.304 14.6584C145.103 14.1509 144.909 13.6401 144.698 13.0952C144.633 13.1928 144.65 13.2745 144.65 13.3495C144.648 13.8217 144.649 14.294 144.648 14.7662C144.648 14.8287 144.667 14.9161 144.581 14.9309C144.463 14.9524 144.338 14.9729 144.226 14.9127C144.183 14.8889 144.195 14.8276 144.195 14.781C144.195 13.9875 144.196 13.1939 144.194 12.4004C144.194 12.2766 144.245 12.2301 144.364 12.2392C144.421 12.2437 144.479 12.2471 144.534 12.2381C144.695 12.2119 144.771 12.2903 144.829 12.4322C145.05 12.9839 145.28 13.5311 145.509 14.0806C145.537 14.1498 145.568 14.2191 145.598 14.2906C145.713 14.2645 145.709 14.1634 145.739 14.093C145.964 13.5527 146.191 13.0134 146.399 12.4674C146.467 12.2869 146.557 12.2085 146.749 12.2369C146.831 12.2483 146.92 12.2551 147 12.2188C146.997 13.1269 146.997 14.0351 146.997 14.9433Z" fill="#2C2C2C"/>
    <path d="M47.2654 25.3315C47.2643 25.3145 47.2632 25.2986 47.2598 25.2827C47.7161 25.2816 48.1736 25.2804 48.63 25.2793C48.6266 25.2963 48.6255 25.3145 48.6266 25.3315C48.1736 25.3315 47.7195 25.3315 47.2654 25.3315Z" fill="#9D9D9D"/>
    <path d="M63.7865 25.2799C63.7831 25.2969 63.782 25.3139 63.7831 25.3309C63.3665 25.3309 62.951 25.3309 62.5343 25.3309C62.5343 25.3139 62.5332 25.2969 62.5298 25.2799C62.9487 25.1243 63.3676 25.1266 63.7865 25.2799Z" fill="#9E9E9E"/>
    <path d="M84.388 25.3308C84.388 25.3126 84.3869 25.2956 84.3857 25.2774C84.7853 25.1298 85.185 25.1242 85.5834 25.2808C85.5834 25.2979 85.5823 25.3138 85.5789 25.3308C85.1827 25.3308 84.7853 25.3308 84.388 25.3308Z" fill="#ACACAC"/>
    <path d="M117.756 25.2837C117.895 25.2723 118.036 25.2394 118.162 25.3313C118.029 25.3313 117.897 25.3313 117.764 25.3313C117.762 25.3154 117.76 25.2996 117.756 25.2837Z" fill="#888888"/>
    <path d="M118.559 25.3315C118.686 25.2429 118.827 25.2736 118.966 25.2849C118.966 25.3008 118.962 25.3167 118.956 25.3315C118.824 25.3315 118.692 25.3315 118.559 25.3315Z" fill="#888888"/>
    <path d="M127.518 17.0027C127.606 16.9811 127.608 16.9278 127.626 16.8892C128.165 15.7153 129.117 15.1136 130.367 14.9581C131.059 14.8718 131.746 14.9354 132.403 15.1942C133.263 15.5325 133.878 16.1308 134.272 16.963C134.308 17.0402 134.342 17.1174 134.379 17.1946C134.387 17.2116 134.4 17.2252 134.414 17.2422C134.472 17.24 134.48 17.1877 134.494 17.1514C135.106 15.7369 136.554 14.8412 138.252 14.9331C139.015 14.974 139.727 15.1556 140.357 15.6007C141.163 16.1706 141.612 16.9675 141.824 17.9166C141.927 18.3809 141.96 18.8509 141.961 19.3243C141.963 21.1781 141.962 23.032 141.962 24.8859C141.962 24.9142 141.963 24.9426 141.962 24.971C141.956 25.164 141.956 25.1674 141.751 25.1685C141.221 25.1708 140.692 25.1697 140.162 25.1697C140.124 25.1697 140.085 25.1651 140.048 25.1708C139.894 25.1901 139.845 25.1152 139.861 24.9733C139.866 24.9176 139.862 24.8597 139.862 24.803C139.862 23.0717 139.862 21.3405 139.862 19.6104C139.862 19.3072 139.846 19.0064 139.787 18.7078C139.563 17.5726 138.779 16.9107 137.815 16.8006C136.924 16.6984 136.119 16.8699 135.475 17.5397C135.065 17.9654 134.881 18.4978 134.795 19.0688C134.754 19.3402 134.738 19.6138 134.738 19.8885C134.742 21.5346 134.74 23.1807 134.74 24.8257C134.74 24.8915 134.735 24.9585 134.741 25.0244C134.75 25.1379 134.696 25.1742 134.591 25.1708C134.458 25.1663 134.326 25.1697 134.194 25.1697C133.73 25.1697 133.266 25.1674 132.803 25.1708C132.684 25.1719 132.626 25.1356 132.638 25.0085C132.645 24.9426 132.639 24.8768 132.639 24.8098C132.639 23.0411 132.638 21.2724 132.641 19.5036C132.641 19.1903 132.612 18.8815 132.536 18.5761C132.265 17.475 131.458 16.8142 130.321 16.7688C129.959 16.7541 129.601 16.7915 129.257 16.9051C128.451 17.1718 127.941 17.7293 127.694 18.5341C127.566 18.9531 127.521 19.3844 127.521 19.8215C127.522 21.4858 127.521 23.1512 127.521 24.8155C127.521 24.8722 127.516 24.929 127.522 24.9858C127.535 25.1152 127.496 25.1719 127.351 25.1708C126.755 25.164 126.159 25.1663 125.563 25.1697C125.451 25.1708 125.41 25.1288 125.419 25.0209C125.424 24.9642 125.42 24.9074 125.42 24.8507C125.42 21.7106 125.42 18.5693 125.42 15.4292C125.42 15.4009 125.42 15.3725 125.42 15.3441C125.419 15.0739 125.42 15.0966 125.668 15.0966C126.216 15.0966 126.766 15.0955 127.314 15.0977C127.515 15.0989 127.518 15.1034 127.519 15.3044C127.522 15.7778 127.521 16.25 127.521 16.7234C127.518 16.8154 127.518 16.9051 127.518 17.0027Z" fill="#2B2B2B"/>
    <path d="M95.7189 18.7249C95.7189 16.7292 95.7189 14.7334 95.7189 12.7377C95.7189 12.6718 95.7189 12.6048 95.7189 12.539C95.7177 12.2245 95.7257 12.262 95.997 12.262C97.3877 12.262 98.7784 12.2563 100.169 12.2631C101.169 12.2677 102.148 12.4096 103.082 12.7808C104.905 13.5051 106.079 14.8174 106.571 16.7156C106.918 18.0586 106.918 19.4174 106.555 20.7548C105.966 22.922 104.533 24.2672 102.394 24.8825C101.682 25.0869 100.951 25.1732 100.209 25.1709C98.8272 25.1675 97.4467 25.1697 96.0651 25.1697C95.9993 25.1697 95.9323 25.1652 95.8664 25.1709C95.7575 25.18 95.7098 25.1357 95.7189 25.0244C95.7245 24.9586 95.72 24.8916 95.72 24.8258C95.7189 22.7925 95.7189 20.7593 95.7189 18.7249Z" fill="#2B2B2B"/>
    <path d="M85.5844 25.2817C85.1848 25.2806 84.7852 25.2795 84.3867 25.2783C83.7816 25.192 83.2072 25.0149 82.6805 24.7005C81.7813 24.1635 81.1729 23.3802 80.8345 22.405C80.2998 20.8611 80.2885 19.2967 80.8777 17.7675C81.4612 16.252 82.5692 15.3086 84.1903 15.0338C85.1122 14.8772 86.0192 14.9476 86.8763 15.3619C87.6347 15.7286 88.1955 16.2996 88.5735 17.0512C88.6019 17.1091 88.6201 17.1727 88.6905 17.2328C88.7325 17.1613 88.7177 17.0875 88.7177 17.0194C88.7188 16.4609 88.7166 15.9034 88.7188 15.3449C88.72 15.1054 88.7222 15.102 88.9482 15.1008C89.5067 15.0986 90.0641 15.1031 90.6227 15.0986C90.7668 15.0974 90.8349 15.144 90.819 15.2927C90.8145 15.3392 90.819 15.3869 90.819 15.4346C90.819 18.5747 90.8191 21.7148 90.8179 24.8537C90.8179 25.2 90.8645 25.1682 90.4989 25.1693C89.979 25.1705 89.459 25.1716 88.9379 25.1693C88.7234 25.1682 88.72 25.1648 88.7188 24.9502C88.7166 24.411 88.7177 23.8718 88.7177 23.3325C88.7177 23.2428 88.7177 23.152 88.7177 23.0544C88.6223 23.0793 88.6144 23.1406 88.5917 23.1872C88.0729 24.2328 87.2498 24.8991 86.1169 25.1818C86.0714 25.1932 86.026 25.2079 85.9806 25.2204C85.8921 25.2783 85.7808 25.2091 85.6923 25.2704C85.6548 25.2749 85.6196 25.2783 85.5844 25.2817Z" fill="#2B2B2B"/>
    <path d="M63.7865 25.2798C63.3676 25.2798 62.9487 25.2809 62.5298 25.2809C61.5002 25.1742 60.5568 24.8427 59.7575 24.1718C58.8198 23.3839 58.2931 22.3588 58.1069 21.1577C57.9673 20.2518 57.9832 19.3447 58.2488 18.4626C58.813 16.5883 60.0822 15.4622 61.9883 15.0762C63.1009 14.8503 64.21 14.9275 65.2749 15.3532C66.7041 15.9242 67.6316 16.9618 68.0505 18.4365C68.3888 19.6274 68.3843 20.8342 67.9994 22.0114C67.4386 23.729 66.2273 24.7542 64.4836 25.1651C64.2565 25.2185 64.0193 25.2412 63.7865 25.2798Z" fill="#2B2B2B"/>
    <path d="M109.888 16.9485C110.016 16.8747 110.043 16.7805 110.093 16.7078C110.883 15.5544 111.989 14.9868 113.374 14.9312C113.508 14.9255 113.558 14.9686 113.557 15.1071C113.551 15.7497 113.551 16.3933 113.557 17.0359C113.558 17.171 113.515 17.2175 113.379 17.2175C112.963 17.2153 112.548 17.1971 112.135 17.2754C111.826 17.3333 111.528 17.4185 111.244 17.5524C110.544 17.8839 110.135 18.4391 109.982 19.194C109.905 19.5766 109.891 19.9637 109.89 20.3508C109.884 21.7404 109.888 23.131 109.888 24.5206C109.888 24.5864 109.888 24.6534 109.888 24.7193C109.888 25.1722 109.888 25.1722 109.45 25.1722C109.006 25.1722 108.561 25.1722 108.117 25.1722C108.069 25.1722 108.022 25.1688 107.975 25.1734C107.858 25.1847 107.794 25.1472 107.809 25.0178C107.816 24.9622 107.81 24.9043 107.81 24.8475C107.81 21.7177 107.81 18.5878 107.81 15.4579C107.81 15.4011 107.816 15.3444 107.809 15.2876C107.793 15.1344 107.868 15.098 108.009 15.0992C108.566 15.1048 109.125 15.0992 109.682 15.1026C109.881 15.1037 109.886 15.1094 109.887 15.3126C109.89 15.7565 109.888 16.2015 109.888 16.6454C109.888 16.7339 109.888 16.8247 109.888 16.9485Z" fill="#2B2B2B"/>
    <path d="M55.0324 18.7197C55.0324 16.6865 55.0324 14.6533 55.0324 12.6201C55.0324 12.5542 55.037 12.4872 55.0313 12.4214C55.0211 12.2931 55.0608 12.2352 55.205 12.2363C55.7817 12.2432 56.3584 12.242 56.9351 12.2375C57.0747 12.2363 57.1531 12.2704 57.1338 12.4271C57.127 12.4827 57.1326 12.5406 57.1326 12.5974C57.1326 16.682 57.1326 20.7677 57.1315 24.8524C57.1315 25.202 57.1815 25.168 56.8148 25.1691C56.3323 25.1702 55.8498 25.1725 55.3685 25.1691C54.9791 25.1668 55.0347 25.2236 55.0336 24.8467C55.0313 23.674 55.0324 22.5013 55.0324 21.3285C55.0324 20.4601 55.0324 19.5905 55.0324 18.7197Z" fill="#2B2B2B"/>
    <path d="M94.3112 18.6885C94.3112 20.7217 94.3112 22.7549 94.3112 24.787C94.3112 24.8438 94.3123 24.9005 94.3112 24.9573C94.3067 25.1628 94.3067 25.1673 94.1159 25.1685C93.5392 25.1707 92.9625 25.1651 92.3858 25.1719C92.2496 25.173 92.194 25.1333 92.211 24.9959C92.2178 24.9403 92.2121 24.8824 92.2121 24.8256C92.2121 20.7592 92.2121 16.6938 92.2121 12.6274C92.2121 12.5797 92.2121 12.5332 92.2121 12.4855C92.2155 12.2414 92.2155 12.2403 92.4619 12.2391C92.9909 12.238 93.5211 12.238 94.0501 12.2391C94.3101 12.2403 94.3112 12.2414 94.3112 12.5036C94.3123 14.2905 94.3112 16.0774 94.3112 17.8654C94.3112 18.1402 94.3112 18.4149 94.3112 18.6885Z" fill="#2B2B2B"/>
    <path d="M143.152 13.8083C143.152 14.1296 143.155 14.4509 143.151 14.771C143.148 14.9413 143.135 14.9436 142.911 14.9447C142.787 14.9459 142.692 14.9447 142.694 14.771C142.702 14.2522 142.698 13.7323 142.697 13.2135C142.697 13.0909 142.699 12.9683 142.697 12.8456C142.692 12.6209 142.692 12.6197 142.455 12.6175C142.332 12.6163 142.21 12.6118 142.087 12.6175C141.944 12.6243 141.944 12.5335 141.945 12.4324C141.946 12.3348 141.939 12.2394 142.082 12.2394C142.649 12.2417 143.215 12.2417 143.782 12.2383C143.923 12.2372 143.927 12.3223 143.925 12.4233C143.923 12.5176 143.943 12.6231 143.793 12.6163C143.727 12.6129 143.662 12.6163 143.595 12.6163C143.153 12.6163 143.153 12.6163 143.153 13.0716C143.152 13.3179 143.152 13.5631 143.152 13.8083Z" fill="#2E2E2E"/>
    <path d="M85.6899 25.2716C85.7762 25.2012 85.8784 25.2125 85.9783 25.2216C85.892 25.2909 85.7932 25.2931 85.6899 25.2716Z" fill="#ACACAC"/>
    <path d="M117.416 25.2276C117.484 25.206 117.547 25.2071 117.596 25.2684C117.528 25.29 117.468 25.2775 117.416 25.2276Z" fill="#888888"/>
    <path d="M71.2588 20.3968C71.2702 19.1049 71.5699 18.2251 72.3248 17.5394C72.8345 17.0774 73.4453 16.8458 74.131 16.8185C74.4818 16.8049 74.8314 16.814 75.1731 16.906C76.2323 17.1898 76.9089 17.8743 77.22 18.9119C77.4527 19.6884 77.4516 20.4808 77.2472 21.2653C76.9067 22.5742 75.8645 23.3973 74.5056 23.4438C73.2636 23.4858 72.2987 23.0045 71.6788 21.909C71.3632 21.3516 71.2497 20.7408 71.2588 20.3968Z" fill="white"/>
    <path d="M97.819 18.7041C97.819 17.3328 97.819 15.9625 97.819 14.5911C97.819 14.5253 97.819 14.4583 97.819 14.3925C97.8213 14.1155 97.8213 14.1121 98.0972 14.1143C98.9282 14.1223 99.7603 14.0825 100.591 14.1541C101.141 14.2006 101.675 14.3119 102.185 14.5241C103.299 14.9873 104.055 15.7934 104.415 16.9422C104.774 18.09 104.78 19.2559 104.432 20.4059C104.005 21.817 103.031 22.6775 101.624 23.068C101.066 23.2236 100.493 23.2792 99.9147 23.286C99.3187 23.2928 98.7238 23.2883 98.1278 23.2871C97.8099 23.286 97.8179 23.3337 97.8179 22.9874C97.819 21.5593 97.819 20.1323 97.819 18.7041Z" fill="white"/>
    <path d="M82.6137 20.1822C82.608 19.6203 82.6659 19.1128 82.86 18.6349C83.3175 17.5087 84.1667 16.9116 85.3723 16.8219C86.058 16.7708 86.7108 16.8877 87.2954 17.2714C88.1446 17.8288 88.5669 18.6451 88.6872 19.6305C88.7531 20.1686 88.7213 20.7056 88.5737 21.2312C88.1639 22.6945 86.8413 23.5766 85.3258 23.4381C83.7421 23.2939 82.8475 22.1723 82.6659 20.8963C82.6318 20.642 82.6216 20.3888 82.6137 20.1822Z" fill="white"/>
    <path d="M66.1238 20.0557C66.1261 20.7482 66.0375 21.3522 65.7537 21.913C65.0817 23.2412 63.7614 23.5863 62.7249 23.4342C61.4103 23.2412 60.527 22.3887 60.2705 21.074C60.1331 20.3713 60.1433 19.6641 60.3238 18.967C60.6474 17.7137 61.5999 16.9066 62.8906 16.8044C64.5072 16.6761 65.731 17.6388 66.0455 19.2247C66.1045 19.5233 66.1215 19.8253 66.1238 20.0557Z" fill="white"/>
</svg>
