<svg width="16" height="16" viewBox="0 0 16 16" fill="none"
    xmlns="http://www.w3.org/2000/svg">
    <path d="M1.75 15.5C1.41667 15.5 1.125 15.375 0.875 15.125C0.625 14.875 0.5 14.5833 0.5 14.25V1.75C0.5 1.41667 0.625 1.125 0.875 0.875C1.125 0.625 1.41667 0.5 1.75 0.5H5.0625V1.75H1.75V14.25H14.25V10.9375H15.5V14.25C15.5 14.5833 15.375 14.875 15.125 15.125C14.875 15.375 14.5833 15.5 14.25 15.5H1.75ZM5.95833 10.9375L5.08333 10.0417L13.375 1.75H8.8125V0.5H15.5V7.1875H14.25V2.64583L5.95833 10.9375Z" fill="black"/>
</svg>
